<svg width="49" height="49" viewBox="0 0 49 49" fill="none" xmlns="http://www.w3.org/2000/svg">
<g id="Group 79616">
<circle id="Ellipse 14" cx="24.5" cy="24.5" r="23.5" stroke="#BEBEBE" stroke-width="2"/>
<path id="Vector" d="M24.5 11C23.5916 11 22.8553 11.7364 22.8553 12.6447V21.8553H13.6447C12.7364 21.8553 12 22.5916 12 23.5C12 24.4084 12.7364 25.1448 13.6447 25.1448H22.8553V34.3553C22.8553 35.2636 23.5916 36 24.5 36C25.4084 36 26.1447 35.2636 26.1447 34.3553V25.1448H35.3553C36.2636 25.1448 37 24.4084 37 23.5C37 22.5916 36.2636 21.8553 35.3553 21.8553H26.1447V12.6447C26.1447 11.7364 25.4084 11 24.5 11Z" fill="#BEBEBE"/>
</g>
</svg>
